<?xml version="1.0" encoding="UTF-8"?>
<svg id="_Шар_2" data-name="Шар 2" xmlns="http://www.w3.org/2000/svg" viewBox="0 0 217.74 217.74">
  <defs>
    <style>
      .cls-1 {
        opacity: .63;
      }

      .cls-1, .cls-2 {
        fill: #373737;
      }

      .cls-3 {
        fill: #4eb7b4;
      }

      .cls-4 {
        fill: #f87e40;
      }

      .cls-5 {
        fill: #d5e2dd;
      }
    </style>
  </defs>
  <g id="icon">
    <g>
      <circle class="cls-5" cx="108.87" cy="108.87" r="108.87"/>
      <g>
        <circle class="cls-4" cx="108.87" cy="109.03" r="31" transform="translate(-45.21 108.91) rotate(-45)"/>
        <path class="cls-1" d="M106.76,157.8s-.02,0-.03,0c-1.45-.06-2.92-.19-4.36-.38-.44-.06-.74-.46-.68-.89,.06-.44,.45-.74,.89-.68,1.39,.19,2.81,.31,4.22,.37,.44,.02,.78,.39,.76,.83-.02,.43-.37,.76-.79,.76Zm4.3,0c-.42,0-.77-.33-.79-.76-.02-.44,.32-.81,.76-.83,1.41-.06,2.83-.19,4.22-.38,.45-.06,.84,.25,.89,.68,.06,.44-.25,.84-.68,.89-1.43,.19-2.9,.32-4.36,.39-.01,0-.02,0-.04,0Zm-12.83-1.13c-.06,0-.12,0-.18-.02-1.42-.32-2.84-.71-4.22-1.16-.42-.14-.65-.58-.51-1,.14-.42,.58-.65,1-.51,1.34,.43,2.71,.81,4.08,1.12,.43,.1,.7,.52,.6,.95-.08,.37-.41,.62-.77,.62Zm21.35-.02c-.36,0-.69-.25-.77-.62-.1-.43,.17-.85,.6-.95,1.37-.31,2.75-.69,4.08-1.13,.42-.14,.87,.09,1,.51,.14,.42-.09,.87-.51,1-1.38,.45-2.8,.84-4.22,1.16-.06,.01-.12,.02-.18,.02Zm-29.54-2.63c-.1,0-.21-.02-.31-.06-1.34-.57-2.66-1.21-3.95-1.9-.39-.21-.53-.69-.32-1.08,.21-.39,.69-.53,1.08-.32,1.24,.67,2.52,1.28,3.82,1.84,.4,.17,.59,.64,.42,1.04-.13,.3-.42,.48-.73,.48Zm37.72-.04c-.31,0-.6-.18-.73-.48-.17-.4,.01-.87,.42-1.04,1.29-.55,2.57-1.17,3.81-1.84,.39-.21,.87-.07,1.08,.32,.21,.39,.06,.87-.32,1.08-1.28,.69-2.6,1.33-3.94,1.9-.1,.04-.21,.06-.31,.06Zm-45.3-4.04c-.15,0-.3-.04-.44-.13-1.21-.8-2.4-1.66-3.54-2.57-.34-.27-.4-.77-.13-1.12,.27-.34,.77-.4,1.12-.13,1.1,.88,2.26,1.71,3.43,2.49,.37,.24,.47,.74,.23,1.1-.15,.23-.41,.36-.66,.36Zm52.86-.05c-.26,0-.51-.12-.66-.36-.24-.37-.14-.86,.22-1.1,1.17-.78,2.32-1.62,3.42-2.49,.34-.27,.84-.22,1.12,.12,.27,.34,.22,.84-.12,1.12-1.13,.91-2.32,1.77-3.54,2.58-.14,.09-.29,.13-.44,.13Zm-59.59-5.31c-.2,0-.39-.07-.55-.22-1.05-1-2.07-2.06-3.03-3.16-.29-.33-.26-.83,.07-1.12,.33-.29,.83-.26,1.12,.07,.93,1.06,1.92,2.09,2.93,3.06,.32,.3,.33,.81,.03,1.12-.16,.16-.37,.25-.58,.25Zm66.31-.06c-.21,0-.42-.08-.57-.25-.3-.32-.29-.82,.02-1.12,1.02-.97,2-2,2.93-3.06,.29-.33,.79-.36,1.12-.08,.33,.29,.36,.79,.08,1.12-.95,1.09-1.97,2.16-3.02,3.16-.15,.15-.35,.22-.55,.22Zm-71.98-6.41c-.25,0-.49-.11-.64-.33-.85-1.17-1.67-2.4-2.42-3.65-.23-.38-.1-.86,.27-1.09,.37-.23,.86-.1,1.09,.27,.73,1.21,1.51,2.4,2.34,3.53,.26,.35,.18,.85-.17,1.11-.14,.1-.31,.15-.47,.15Zm77.64-.07c-.16,0-.33-.05-.47-.15-.36-.26-.43-.76-.18-1.11,.83-1.14,1.61-2.33,2.34-3.53,.23-.38,.71-.5,1.09-.27,.38,.23,.5,.71,.27,1.09-.75,1.25-1.56,2.48-2.41,3.65-.16,.21-.4,.33-.64,.33Zm-82.07-7.31c-.3,0-.58-.16-.72-.45-.63-1.31-1.21-2.66-1.73-4.02-.16-.41,.05-.87,.46-1.02,.41-.16,.87,.05,1.02,.46,.5,1.31,1.06,2.62,1.67,3.89,.19,.4,.03,.87-.37,1.06-.11,.05-.23,.08-.35,.08Zm86.49-.08c-.12,0-.23-.03-.34-.08-.4-.19-.56-.67-.37-1.06,.61-1.26,1.17-2.57,1.66-3.89,.15-.41,.62-.62,1.02-.47,.41,.15,.62,.61,.47,1.02-.51,1.36-1.09,2.72-1.72,4.03-.14,.28-.42,.45-.72,.45Zm-89.53-7.97c-.35,0-.67-.23-.77-.58-.39-1.4-.72-2.84-.98-4.27-.08-.43,.21-.85,.64-.92,.43-.08,.85,.21,.92,.64,.25,1.38,.57,2.77,.95,4.13,.12,.42-.13,.86-.55,.98-.07,.02-.14,.03-.21,.03Zm92.55-.09c-.07,0-.14,0-.21-.03-.42-.12-.67-.55-.56-.98,.37-1.36,.69-2.75,.94-4.13,.08-.43,.49-.72,.92-.64,.43,.08,.72,.49,.64,.92-.26,1.43-.58,2.86-.97,4.27-.1,.35-.42,.58-.77,.58Zm-94.09-8.38c-.41,0-.75-.31-.79-.72-.13-1.44-.2-2.91-.2-4.37,0-.44,.35-.8,.79-.8h0c.44,0,.79,.35,.79,.79,0,1.41,.07,2.83,.19,4.23,.04,.44-.28,.82-.72,.86-.02,0-.05,0-.07,0Zm95.62-.09s-.05,0-.07,0c-.44-.04-.76-.42-.72-.86,.12-1.4,.19-2.82,.19-4.23v-.18c0-.44,.36-.8,.79-.8s.79,.36,.79,.8v.18c0,1.46-.07,2.93-.19,4.37-.04,.41-.38,.72-.79,.72Zm-95.63-8.51s-.05,0-.07,0c-.44-.04-.76-.42-.72-.86,.12-1.45,.32-2.91,.57-4.34,.08-.43,.48-.72,.92-.64,.43,.08,.72,.49,.64,.92-.25,1.38-.43,2.8-.56,4.2-.04,.41-.38,.73-.79,.73Zm95.61-.27c-.41,0-.75-.31-.79-.72-.13-1.4-.32-2.81-.58-4.19-.08-.43,.21-.85,.64-.93,.43-.08,.85,.21,.93,.64,.26,1.43,.46,2.89,.6,4.33,.04,.44-.28,.82-.72,.86-.02,0-.05,0-.07,0Zm-94.1-8.2c-.07,0-.14,0-.21-.03-.42-.12-.67-.55-.56-.98,.38-1.41,.84-2.81,1.34-4.17,.15-.41,.61-.62,1.02-.47,.41,.15,.62,.61,.47,1.02-.49,1.31-.93,2.67-1.3,4.03-.1,.35-.42,.59-.77,.59Zm92.55-.26c-.35,0-.67-.23-.76-.58-.38-1.35-.82-2.71-1.32-4.02-.16-.41,.05-.87,.46-1.02,.41-.16,.87,.05,1.02,.46,.52,1.36,.97,2.76,1.37,4.16,.12,.42-.13,.86-.55,.98-.07,.02-.14,.03-.21,.03Zm-89.54-7.8c-.11,0-.23-.02-.34-.08-.4-.19-.56-.66-.37-1.06,.63-1.31,1.33-2.61,2.07-3.86,.22-.38,.71-.5,1.09-.27,.38,.22,.5,.71,.27,1.09-.72,1.2-1.39,2.46-2,3.73-.14,.28-.42,.45-.72,.45Zm86.49-.24c-.29,0-.58-.16-.72-.45-.61-1.26-1.29-2.51-2.02-3.72-.23-.38-.11-.86,.27-1.09,.37-.23,.86-.11,1.09,.27,.75,1.25,1.45,2.54,2.09,3.85,.19,.4,.03,.87-.37,1.06-.11,.05-.23,.08-.35,.08Zm-82.09-7.15c-.16,0-.32-.05-.47-.15-.36-.26-.43-.75-.18-1.11,.85-1.18,1.77-2.33,2.72-3.43,.29-.33,.79-.37,1.12-.08,.33,.29,.37,.79,.08,1.12-.92,1.06-1.81,2.18-2.64,3.31-.16,.21-.4,.33-.64,.33Zm77.65-.21c-.25,0-.49-.11-.64-.33-.83-1.13-1.72-2.24-2.65-3.3-.29-.33-.26-.83,.07-1.12,.33-.29,.83-.26,1.12,.07,.96,1.09,1.89,2.24,2.74,3.41,.26,.35,.18,.85-.17,1.11-.14,.1-.31,.15-.47,.15Zm-72-6.28c-.21,0-.42-.08-.57-.24-.3-.32-.29-.82,.02-1.12,1.05-1.01,2.16-1.98,3.29-2.89,.34-.27,.84-.22,1.12,.12,.27,.34,.22,.84-.12,1.12-1.09,.87-2.16,1.81-3.18,2.79-.15,.15-.35,.22-.55,.22Zm66.31-.18c-.2,0-.39-.07-.55-.22-1.02-.97-2.09-1.9-3.2-2.78-.34-.27-.4-.77-.13-1.12,.27-.34,.77-.4,1.12-.13,1.14,.9,2.25,1.87,3.3,2.87,.32,.3,.33,.81,.03,1.12-.16,.16-.37,.25-.58,.25Zm-59.6-5.2c-.26,0-.51-.12-.66-.35-.24-.37-.14-.86,.22-1.1,1.21-.81,2.47-1.57,3.75-2.26,.39-.21,.87-.07,1.08,.32,.21,.39,.07,.87-.32,1.08-1.23,.67-2.45,1.4-3.63,2.18-.14,.09-.29,.13-.44,.13Zm52.86-.15c-.15,0-.3-.04-.44-.13-1.17-.77-2.4-1.5-3.64-2.16-.39-.21-.53-.69-.33-1.08,.21-.39,.69-.53,1.08-.33,1.28,.69,2.55,1.44,3.76,2.24,.37,.24,.47,.73,.23,1.1-.15,.23-.41,.36-.67,.36Zm-45.3-3.96c-.31,0-.6-.18-.73-.48-.17-.4,.01-.87,.42-1.04,1.33-.57,2.71-1.1,4.09-1.55,.42-.14,.87,.09,1,.51,.14,.42-.09,.87-.51,1-1.34,.44-2.67,.94-3.96,1.5-.1,.04-.21,.07-.31,.07Zm37.72-.1c-.1,0-.21-.02-.31-.06-1.29-.55-2.63-1.05-3.97-1.48-.42-.13-.65-.58-.51-1,.14-.42,.58-.64,1-.51,1.38,.45,2.77,.96,4.1,1.53,.4,.17,.59,.64,.42,1.04-.13,.3-.42,.48-.73,.48Zm-29.55-2.57c-.36,0-.69-.25-.77-.62-.1-.43,.17-.85,.6-.95,1.41-.33,2.86-.59,4.31-.79,.43-.06,.84,.25,.9,.68,.06,.43-.25,.84-.68,.9-1.4,.19-2.8,.45-4.16,.76-.06,.01-.12,.02-.18,.02Zm21.36-.06c-.06,0-.12,0-.17-.02-1.37-.31-2.77-.56-4.17-.74-.44-.06-.74-.46-.68-.89,.06-.44,.45-.74,.89-.68,1.44,.19,2.89,.45,4.31,.76,.43,.1,.7,.52,.6,.95-.08,.37-.41,.62-.77,.62Zm-12.83-1.11c-.42,0-.77-.33-.79-.76-.02-.44,.32-.81,.76-.83,1.44-.07,2.93-.07,4.38-.01,.44,.02,.78,.39,.76,.83-.02,.44-.38,.79-.83,.76-1.4-.06-2.84-.05-4.24,.01-.01,0-.03,0-.04,0Z"/>
        <path class="cls-1" d="M108.91,174.95h-.04c-1.56,0-3.12-.05-4.66-.16-.47-.03-.82-.44-.78-.9,.03-.47,.42-.82,.9-.78,1.5,.1,3.02,.16,4.54,.16,.47,0,.87,.38,.87,.85s-.36,.85-.83,.85Zm4.64-.17c-.44,0-.81-.34-.84-.79-.03-.47,.32-.87,.78-.9,1.52-.11,3.05-.27,4.56-.49,.46-.07,.89,.26,.96,.72,.07,.46-.26,.89-.72,.96-1.55,.22-3.12,.39-4.68,.5-.02,0-.04,0-.06,0Zm-13.9-.48s-.08,0-.12,0c-1.55-.22-3.11-.5-4.63-.83-.46-.1-.75-.55-.65-1.01,.1-.46,.55-.75,1.01-.65,1.48,.32,3,.59,4.51,.81,.46,.07,.78,.49,.72,.96-.06,.42-.42,.73-.84,.73Zm23.09-.83c-.39,0-.74-.27-.83-.67-.1-.46,.19-.91,.65-1.01,1.48-.32,2.98-.7,4.44-1.13,.46-.13,.92,.13,1.05,.57,.13,.45-.12,.92-.57,1.05-1.5,.44-3.04,.83-4.56,1.16-.06,.01-.12,.02-.18,.02Zm-32.16-1.12c-.08,0-.16-.01-.24-.03-1.5-.44-3-.94-4.47-1.48-.44-.16-.66-.65-.5-1.09,.16-.44,.65-.66,1.09-.5,1.43,.53,2.89,1.02,4.35,1.44,.45,.13,.71,.6,.57,1.05-.11,.37-.45,.61-.81,.61Zm41.07-1.49c-.34,0-.67-.21-.79-.55-.16-.44,.06-.93,.5-1.09,1.43-.53,2.85-1.12,4.23-1.76,.43-.19,.93,0,1.12,.42,.19,.42,0,.93-.42,1.12-1.42,.65-2.88,1.26-4.34,1.8-.1,.04-.2,.05-.3,.05Zm-49.78-1.75c-.12,0-.24-.02-.35-.08-1.43-.65-2.84-1.36-4.21-2.11-.41-.22-.56-.74-.34-1.15,.22-.41,.74-.56,1.15-.34,1.33,.73,2.71,1.42,4.1,2.05,.43,.19,.61,.7,.42,1.12-.14,.31-.45,.49-.77,.49Zm58.21-2.11c-.3,0-.59-.16-.74-.44-.22-.41-.07-.92,.34-1.15,1.33-.73,2.66-1.52,3.94-2.34,.39-.25,.92-.14,1.17,.25,.25,.39,.14,.92-.25,1.17-1.31,.85-2.67,1.65-4.04,2.4-.13,.07-.27,.1-.41,.1Zm-66.36-2.34c-.16,0-.31-.04-.46-.13-1.32-.85-2.62-1.75-3.87-2.68-.37-.28-.45-.81-.17-1.18,.28-.37,.81-.45,1.18-.17,1.22,.91,2.48,1.79,3.77,2.62,.39,.25,.51,.78,.25,1.17-.16,.25-.43,.39-.71,.39Zm74.16-2.68c-.26,0-.51-.12-.68-.34-.28-.37-.2-.9,.17-1.18,1.21-.91,2.41-1.88,3.57-2.88,.35-.31,.89-.27,1.19,.09,.31,.35,.27,.89-.09,1.19-1.18,1.03-2.41,2.02-3.66,2.95-.15,.11-.33,.17-.51,.17Zm-81.6-2.88c-.2,0-.39-.07-.55-.21-1.18-1.02-2.34-2.1-3.44-3.2-.33-.33-.33-.87,0-1.2,.33-.33,.87-.33,1.2,0,1.08,1.08,2.21,2.13,3.36,3.12,.35,.31,.39,.84,.09,1.19-.17,.19-.4,.29-.64,.29Zm88.61-3.2c-.22,0-.43-.08-.6-.25-.33-.33-.33-.87,0-1.2,1.08-1.08,2.13-2.21,3.12-3.36,.31-.35,.84-.39,1.19-.09,.35,.31,.39,.84,.09,1.19-1.02,1.18-2.1,2.34-3.21,3.44-.17,.17-.38,.25-.6,.25Zm-95.18-3.36c-.24,0-.47-.1-.64-.29-1.02-1.18-2.02-2.41-2.96-3.66-.28-.37-.2-.9,.17-1.18,.37-.28,.9-.2,1.18,.17,.92,1.22,1.89,2.42,2.88,3.57,.31,.35,.27,.89-.08,1.19-.16,.14-.36,.21-.55,.21Zm101.26-3.66c-.18,0-.35-.06-.51-.17-.37-.28-.45-.81-.17-1.18,.91-1.22,1.79-2.48,2.62-3.76,.25-.39,.78-.51,1.17-.25,.39,.25,.51,.78,.25,1.17-.85,1.32-1.75,2.62-2.69,3.87-.17,.22-.42,.34-.68,.34Zm-106.84-3.77c-.28,0-.55-.14-.71-.39-.85-1.31-1.66-2.67-2.41-4.04-.22-.41-.07-.92,.34-1.15,.41-.23,.92-.07,1.15,.34,.73,1.34,1.52,2.66,2.34,3.94,.25,.39,.14,.92-.25,1.17-.14,.09-.3,.14-.46,.14Zm111.86-4.04c-.14,0-.28-.03-.41-.1-.41-.22-.56-.74-.34-1.15,.73-1.33,1.42-2.72,2.06-4.1,.19-.42,.69-.61,1.12-.42,.42,.19,.61,.7,.42,1.12-.65,1.42-1.36,2.84-2.11,4.21-.15,.28-.44,.44-.74,.44Zm-116.32-4.09c-.32,0-.63-.18-.77-.49-.65-1.42-1.26-2.88-1.8-4.34-.16-.44,.06-.93,.5-1.09,.44-.16,.93,.06,1.09,.5,.53,1.42,1.12,2.84,1.76,4.23,.19,.42,0,.93-.42,1.12-.11,.05-.23,.08-.35,.08Zm120.19-4.36c-.1,0-.2-.02-.3-.05-.44-.16-.66-.65-.5-1.09,.53-1.42,1.02-2.89,1.45-4.35,.13-.45,.6-.7,1.05-.57,.45,.13,.71,.6,.57,1.05-.44,1.5-.94,3-1.49,4.47-.13,.34-.45,.55-.79,.55Zm-123.44-4.33c-.37,0-.7-.24-.81-.61-.44-1.5-.83-3.03-1.17-4.56-.1-.46,.19-.91,.65-1.01,.45-.1,.91,.19,1.01,.65,.32,1.49,.71,2.98,1.14,4.44,.13,.45-.12,.92-.57,1.05-.08,.02-.16,.03-.24,.03Zm126.05-4.58c-.06,0-.12,0-.18-.02-.46-.1-.75-.55-.65-1.01,.32-1.49,.59-3,.81-4.51,.07-.46,.49-.79,.96-.72,.46,.07,.78,.49,.72,.96-.22,1.55-.5,3.11-.83,4.63-.09,.4-.44,.67-.83,.67Zm-128.03-4.49c-.41,0-.78-.3-.84-.73-.22-1.54-.39-3.12-.5-4.68-.03-.47,.32-.87,.78-.9,.46-.04,.87,.32,.9,.78,.11,1.52,.27,3.05,.49,4.56,.07,.46-.25,.89-.72,.96-.04,0-.08,0-.12,0Zm129.34-4.7s-.04,0-.06,0c-.47-.03-.82-.44-.78-.9,.11-1.51,.16-3.05,.16-4.58v-.16c0-.47,.38-.85,.85-.85s.85,.38,.85,.85v.16c0,1.57-.06,3.15-.17,4.7-.03,.45-.4,.79-.84,.79Zm-130-4.6c-.47,0-.85-.34-.85-.8v-.08c0-1.54,.05-3.09,.16-4.62,.03-.47,.44-.8,.9-.79,.47,.03,.82,.44,.79,.9-.1,1.49-.16,3-.16,4.5,0,.47-.38,.89-.85,.89Zm129.99-4.85c-.44,0-.81-.34-.84-.78-.11-1.52-.28-3.06-.5-4.56-.07-.46,.25-.89,.72-.96,.46-.08,.89,.25,.96,.72,.22,1.54,.39,3.11,.51,4.68,.03,.47-.32,.87-.78,.91-.02,0-.04,0-.06,0Zm-129.35-4.37s-.08,0-.12,0c-.46-.07-.78-.49-.72-.96,.22-1.55,.49-3.1,.82-4.63,.1-.46,.55-.75,1-.65,.46,.1,.75,.55,.65,1-.32,1.49-.59,3.01-.8,4.51-.06,.42-.42,.73-.84,.73Zm128.01-4.82c-.39,0-.74-.27-.83-.67-.33-1.49-.71-2.98-1.14-4.44-.13-.45,.12-.92,.57-1.05,.45-.13,.92,.12,1.05,.57,.44,1.49,.84,3.03,1.17,4.56,.1,.46-.19,.91-.65,1.01-.06,.01-.12,.02-.18,.02Zm-126.06-4.26c-.08,0-.16-.01-.24-.03-.45-.13-.71-.6-.57-1.05,.44-1.5,.94-3,1.48-4.47,.16-.44,.65-.66,1.09-.5,.44,.16,.66,.65,.5,1.09-.53,1.43-1.01,2.89-1.44,4.35-.11,.37-.45,.61-.81,.61Zm123.43-4.64c-.34,0-.66-.21-.79-.55-.53-1.42-1.13-2.84-1.76-4.23-.2-.42,0-.93,.41-1.12,.43-.2,.93,0,1.12,.41,.65,1.42,1.26,2.88,1.81,4.34,.17,.44-.06,.92-.49,1.09-.1,.04-.2,.05-.3,.05Zm-120.2-4.07c-.12,0-.24-.02-.35-.08-.42-.19-.61-.7-.42-1.12,.65-1.43,1.36-2.84,2.11-4.21,.22-.41,.74-.56,1.15-.34,.41,.22,.56,.74,.34,1.15-.73,1.33-1.42,2.72-2.05,4.1-.14,.31-.45,.49-.77,.49Zm116.32-4.36c-.3,0-.59-.16-.74-.44-.74-1.34-1.53-2.66-2.35-3.93-.25-.39-.14-.92,.25-1.17,.39-.25,.92-.14,1.17,.25,.84,1.3,1.66,2.66,2.41,4.04,.23,.41,.08,.92-.33,1.15-.13,.07-.27,.1-.41,.1Zm-111.87-3.8c-.16,0-.31-.04-.46-.13-.39-.25-.51-.78-.26-1.17,.84-1.32,1.75-2.62,2.68-3.87,.28-.37,.81-.45,1.18-.17,.37,.28,.45,.81,.17,1.18-.91,1.22-1.79,2.49-2.61,3.77-.16,.25-.43,.39-.71,.39Zm106.83-3.99c-.26,0-.51-.12-.68-.34-.92-1.22-1.89-2.42-2.89-3.56-.31-.35-.27-.89,.08-1.19,.35-.31,.89-.27,1.19,.08,1.02,1.17,2.02,2.4,2.96,3.66,.28,.37,.21,.9-.17,1.18-.15,.11-.33,.17-.51,.17Zm-101.27-3.44c-.2,0-.39-.07-.55-.21-.35-.31-.39-.84-.09-1.19,1.03-1.19,2.1-2.34,3.2-3.45,.33-.33,.87-.33,1.2,0,.33,.33,.33,.87,0,1.2-1.07,1.07-2.12,2.2-3.12,3.36-.17,.19-.4,.29-.64,.29Zm95.17-3.56c-.22,0-.43-.08-.6-.25-1.08-1.08-2.21-2.13-3.36-3.12-.35-.31-.39-.84-.09-1.19,.31-.36,.84-.39,1.19-.09,1.18,1.02,2.34,2.1,3.45,3.2,.33,.33,.33,.87,0,1.2-.17,.17-.38,.25-.6,.25Zm-88.62-3.02c-.24,0-.47-.1-.64-.29-.31-.35-.27-.89,.08-1.19,1.18-1.02,2.41-2.02,3.66-2.96,.37-.28,.9-.21,1.18,.17,.28,.37,.21,.9-.17,1.18-1.22,.91-2.41,1.88-3.56,2.88-.16,.14-.36,.21-.56,.21Zm81.59-3.05c-.18,0-.35-.05-.51-.17-1.22-.91-2.48-1.79-3.77-2.61-.39-.25-.51-.77-.26-1.17,.25-.39,.77-.51,1.17-.26,1.32,.85,2.62,1.75,3.87,2.68,.37,.28,.45,.81,.17,1.18-.17,.22-.42,.34-.68,.34Zm-74.17-2.53c-.28,0-.55-.14-.71-.39-.25-.39-.14-.92,.25-1.17,1.31-.85,2.67-1.66,4.04-2.41,.41-.22,.92-.07,1.15,.33,.22,.41,.08,.92-.33,1.15-1.33,.73-2.66,1.52-3.93,2.35-.14,.09-.3,.14-.46,.14Zm66.35-2.49c-.14,0-.28-.03-.4-.1-1.34-.73-2.72-1.42-4.1-2.05-.43-.19-.61-.69-.42-1.12,.19-.42,.69-.61,1.12-.42,1.43,.65,2.84,1.36,4.21,2.1,.41,.22,.56,.74,.34,1.15-.15,.28-.44,.44-.74,.44Zm-58.22-1.98c-.32,0-.63-.18-.77-.49-.19-.42,0-.93,.42-1.12,1.42-.65,2.88-1.26,4.34-1.81,.44-.16,.92,.06,1.09,.5,.16,.44-.06,.92-.5,1.09-1.42,.53-2.84,1.12-4.23,1.76-.11,.05-.23,.08-.35,.08Zm49.76-1.87c-.1,0-.2-.02-.29-.05-1.43-.53-2.9-1.01-4.35-1.44-.45-.13-.71-.6-.58-1.05,.13-.45,.6-.71,1.05-.58,1.49,.43,3,.93,4.47,1.48,.44,.16,.66,.65,.5,1.09-.13,.34-.45,.55-.79,.55Zm-41.08-1.39c-.37,0-.7-.24-.81-.61-.13-.45,.12-.92,.57-1.05,1.5-.44,3.03-.83,4.56-1.17,.46-.1,.91,.19,1.01,.65,.1,.46-.19,.91-.65,1.01-1.49,.33-2.98,.71-4.44,1.14-.08,.02-.16,.03-.24,.03Zm32.16-1.21c-.06,0-.12,0-.18-.02-1.49-.32-3.01-.59-4.51-.8-.46-.07-.79-.49-.72-.96,.06-.46,.49-.79,.96-.72,1.55,.22,3.11,.49,4.63,.82,.46,.1,.75,.55,.65,1-.09,.4-.44,.67-.83,.67Zm-23.09-.78c-.41,0-.78-.3-.84-.73-.07-.46,.25-.89,.72-.96,1.54-.22,3.11-.39,4.68-.51,.46-.04,.87,.32,.9,.78,.03,.47-.32,.87-.78,.9-1.52,.11-3.06,.28-4.56,.49-.04,0-.08,0-.12,0Zm13.9-.52s-.04,0-.06,0c-1.47-.1-2.98-.15-4.46-.15h-.12c-.47,0-.85-.38-.85-.85s.38-.85,.85-.85h.12c1.52,0,3.06,.05,4.58,.16,.47,.03,.82,.44,.79,.9-.03,.45-.4,.79-.84,.79Z"/>
        <circle class="cls-3" cx="67.77" cy="133.72" r="10.84"/>
        <path class="cls-4" d="M81.74,77.58c0,3.99-3.23,7.22-7.22,7.22s-7.22-3.23-7.22-7.22,3.23-7.22,7.22-7.22,7.22,3.23,7.22,7.22Z"/>
        <circle class="cls-2" cx="132.38" cy="48.65" r="12.82"/>
      </g>
    </g>
  </g>
</svg>