<svg width="75" height="75" viewBox="0 0 75 75" fill="none" xmlns="http://www.w3.org/2000/svg">
  <path d="M39.6672 72.8328C59.181 71.6358 74.0297 54.8465 72.8328 35.3328C71.6358 15.819 54.8465 0.970308 35.3328 2.16724C15.819 3.36417 0.970305 20.1535 2.16724 39.6673C3.36417 59.181 20.1535 74.0297 39.6672 72.8328Z" fill="#D5E2DD"/>
  <path d="M54.4562 37.5076C54.4562 46.8817 46.8574 54.4708 37.4931 54.4708C28.1287 54.4708 20.5234 46.8817 20.5234 37.5076C20.5234 28.1335 28.1157 20.5413 37.4931 20.5413C46.8704 20.5413 54.4562 28.1368 54.4562 37.5076Z" fill="#F87E40"/>
  <path d="M38.244 40.8209C38.244 41.5134 38.4878 42.1475 38.891 42.6482H36.0329C34.0853 42.6482 32.5083 44.2252 32.5083 46.1728C32.5083 48.1205 34.0853 49.6975 36.0329 49.6975H49.2861C52.3848 46.6996 54.3454 42.5311 54.4495 37.901H41.1638C39.5511 37.901 38.2472 39.2081 38.2472 40.8176L38.244 40.8209Z" fill="#EF6A30"/>
  <path d="M47.114 23.5392H41.3523C40.2306 23.5392 39.3169 24.4496 39.3169 25.5746C39.3169 26.6997 40.2273 27.6101 41.3523 27.6101H43.1374C42.8871 27.997 42.7407 28.4587 42.7407 28.953C42.7407 30.3316 43.856 31.4469 45.2346 31.4469H53.3309C52.0953 28.2246 49.9071 25.4738 47.1108 23.5424L47.114 23.5392Z" fill="#EF6A30"/>
  <path d="M32.0401 36.3826C32.0401 35.6738 31.8255 35.017 31.4581 34.4675H34.1503C35.7631 34.4675 37.0669 33.1604 37.0669 31.5509C37.0669 29.9414 35.7598 28.6343 34.1503 28.6343H23.0237C21.4369 31.216 20.52 34.2529 20.52 37.5077C20.52 38.2945 20.5785 39.0684 20.6826 39.826H28.6C30.5022 39.826 32.0434 38.2848 32.0434 36.3826H32.0401Z" fill="#EF6A30"/>
  <path d="M53.2955 31.3428C53.6694 32.3052 53.962 33.3067 54.1571 34.3439C56.3128 35.2478 57.5712 36.3371 57.5712 37.5076C57.5712 38.6782 56.3128 39.7674 54.1571 40.6714C50.5512 42.1833 44.4318 43.1783 37.4866 43.1783C30.5414 43.1783 24.4253 42.1833 20.8161 40.6714C18.6604 39.7674 17.4021 38.6782 17.4021 37.5076C17.4021 36.3371 18.6604 35.2478 20.8161 34.3439C21.0112 33.3067 21.3006 32.3052 21.6778 31.3428C16.6217 32.8417 13.4287 35.0462 13.4287 37.5076C13.4287 39.969 16.6217 42.1735 21.6778 43.6725C25.9047 44.9276 31.4356 45.6852 37.4866 45.6852C43.5377 45.6852 49.0685 44.9243 53.2955 43.6725C58.3483 42.1735 61.5445 39.969 61.5445 37.5076C61.5445 35.0462 58.3483 32.8417 53.2955 31.3428Z" fill="#373737"/>
</svg>
